<?xml version="1.0" encoding="UTF-8" standalone="no"?>
<svg
   id="Calque_1"
   data-name="Calque 1"
   viewBox="0 0 630.82005 198.50001"
   version="1.1"
   sodipodi:docname="unis.svg"
   width="630.82007"
   height="198.5"
   inkscape:version="1.3.2 (091e20ef0f, 2023-11-25)"
   xmlns:inkscape="http://www.inkscape.org/namespaces/inkscape"
   xmlns:sodipodi="http://sodipodi.sourceforge.net/DTD/sodipodi-0.dtd"
   xmlns="http://www.w3.org/2000/svg"
   xmlns:svg="http://www.w3.org/2000/svg">
  <sodipodi:namedview
     id="namedview40"
     pagecolor="#ffffff"
     bordercolor="#111111"
     borderopacity="1"
     inkscape:showpageshadow="0"
     inkscape:pageopacity="0"
     inkscape:pagecheckerboard="1"
     inkscape:deskcolor="#d1d1d1"
     inkscape:zoom="1.6721928"
     inkscape:cx="523.56402"
     inkscape:cy="98.97184"
     inkscape:window-width="2560"
     inkscape:window-height="1403"
     inkscape:window-x="2560"
     inkscape:window-y="0"
     inkscape:window-maximized="1"
     inkscape:current-layer="Calque_1" />
  <defs
     id="defs1">
    <style
       id="style1">.cls-1{fill:#fff;}.cls-2{fill:none;stroke:#fff;stroke-miterlimit:10;stroke-width:7px;}</style>
  </defs>
  <path
     class="cls-1"
     d="M 183.41,7.5500009 V 99.250001 q 0,46.939999 -23.6,71.339999 -23.6,24.4 -68.109996,24.41 -44.49,0 -68.1,-24.41 Q -0.00999577,146.18 4.2337003e-6,99.250001 V 7.5500009 H 64.190004 V 101.95 q 0,16.46 7.15,25.22 7.15,8.76 20.36,8.76 13.219996,0 20.369996,-8.76 7.15,-8.76 7.15,-25.22 V 7.5500009 Z"
     id="path1"
     style="fill:#3fb9bc;fill-opacity:1" />
  <path
     class="cls-1"
     d="M 177.58,190.96 V 99.250001 q 0,-46.93 23.6,-71.34 23.6,-24.4100001 68.11,-24.4100001 44.51,0 68.1,24.4100001 23.59,24.41 23.6,71.34 V 190.96 h -64.2 V 96.550001 q 0,-16.45 -7.15,-25.21 -7.15,-8.76 -20.35,-8.73 -13.22,0 -20.37,8.77 -7.15,8.77 -7.13,25.17 V 190.96 Z"
     id="path2"
     style="fill:#3fb9bc;fill-opacity:1" />
  <path
     class="cls-2"
     d="M 437.99,7.5500009 V 190.96 H 374.87 V 7.5500009 Z"
     id="path3"
     style="stroke:#3fb9bc;stroke-opacity:1" />
  <path
     class="cls-2"
     d="m 539.94,3.5000009 a 119.83,119.83 0 0 1 50.17,11.1100001 56.24,56.24 0 0 1 23.19,20 q 9.16,13.49 11.06,32.37 h -64.19 q -4.05,-13 -16.73,-13 -11.32,0 -11.32,7 0,5.13 8.63,7.29 l 34,8.89 q 24.54,6.48 38.57,19 14.03,12.519999 14,35.999999 0,29.94 -22.93,46.39 -22.4,16.45 -61.77,16.45 -23.73,0 -43.42,-7 a 82.51,82.51 0 0 1 -20.77,-11.06 q -20.5,-16.19 -24.81,-48.28 h 63.92 q 3.51,14.84 25.08,14.84 13.77,0 13.76,-7 0,-4.58 -9.44,-7 l -31.29,-8.63 q -28.59,-7.82 -41.53,-20.36 -12.94,-12.539999 -12.95,-34.119999 0,-29.4 21.58,-46.13 22.12,-16.7500001 57.19,-16.7600001 z"
     id="path4"
     style="stroke:#3fb9bc;stroke-opacity:1" />
</svg>
